<svg xmlns="http://www.w3.org/2000/svg" width="24" height="24" viewBox="0 0 24 24" fill="none" stroke="#155dfc" stroke-width="2" stroke-linecap="round" stroke-linejoin="round" class="lucide lucide-book-open w-32 h-32 text-white opacity-50" data-fg-d3bl63="0.8:1.16975:/src/app/App.tsx:95:19:4395:56:e:BookOpen::::::DjZh"><path d="M12 7v14"></path><path d="M3 18a1 1 0 0 1-1-1V4a1 1 0 0 1 1-1h5a4 4 0 0 1 4 4 4 4 0 0 1 4-4h5a1 1 0 0 1 1 1v13a1 1 0 0 1-1 1h-6a3 3 0 0 0-3 3 3 3 0 0 0-3-3z"></path></svg>