<?xml version="1.0" ?><svg height="100%" id="svg15" style="fill-rule:evenodd;clip-rule:evenodd;stroke-linejoin:round;stroke-miterlimit:2;" version="1.1" viewBox="0 0 64 64" width="100%" xml:space="preserve" xmlns="http://www.w3.org/2000/svg" xmlns:cc="http://creativecommons.org/ns#" xmlns:dc="http://purl.org/dc/elements/1.1/" xmlns:inkscape="http://www.inkscape.org/namespaces/inkscape" xmlns:rdf="http://www.w3.org/1999/02/22-rdf-syntax-ns#" xmlns:sodipodi="http://sodipodi.sourceforge.net/DTD/sodipodi-0.dtd" xmlns:svg="http://www.w3.org/2000/svg"><defs id="defs19"/><path d="m 32.000205,7.0001169 c -13.797643,0 -25.0000781,11.2024351 -25.0000781,25.0000781 0,13.797643 11.2024351,25.000078 25.0000781,25.000078 13.797643,0 25.000078,-11.202435 25.000078,-25.000078 0,-13.797643 -11.202435,-25.0000781 -25.000078,-25.0000781 z m 0,2.0000062 c 12.69444,0 23.000072,10.3056319 23.000072,23.0000719 0,12.69444 -10.305632,23.000072 -23.000072,23.000072 -12.69444,0 -23.0000719,-10.305632 -23.0000719,-23.000072 0,-12.69444 10.3056319,-23.0000719 23.0000719,-23.0000719 z" id="path4" style="stroke-width:0.800003;fill:#000000"/><path d="m 35.535511,27.836113 c -4.285083,4.285083 -8.560974,8.560974 -10.207832,10.207831 -0.780649,0.780649 -0.78152,2.046918 -1e-6,2.828437 l 8.249455,8.249455 c 0.744966,0.744966 1.827006,1.044943 2.849159,0.788642 1.022317,-0.254723 1.83571,-1.028083 2.142596,-2.03642 L 46.37098,22.239774 c 0.325815,-1.074262 0.02578,-2.239795 -0.776948,-3.022727 -0.804308,-0.783096 -1.978327,-1.052014 -3.042472,-0.696283 v 0 c -6.50845,2.169196 -19.995958,6.664894 -26.542048,8.847363 -1.070292,0.356655 -1.850669,1.28324 -2.018417,2.399602 -0.167042,1.115655 0.304926,2.231092 1.224058,2.88718 l 6.098976,4.356659 c 0.716954,0.511892 1.685857,0.495084 2.383773,-0.04444 z m -13.058622,7.547961 c -1.18952,-0.848693 -3.908353,-2.79112 -6.100553,-4.356822 -0.30509,-0.218822 -0.462884,-0.590163 -0.407022,-0.96281 0.05602,-0.371069 0.315751,-0.681272 0.67257,-0.799632 l 26.542048,-8.847363 c 0.355241,-0.118522 0.746055,-0.02894 1.014158,0.232095 0.268103,0.261032 0.367696,0.65054 0.258801,1.008337 0,0 -7.801385,25.633576 -7.801385,25.633576 -0.102585,0.335823 -0.374007,0.593319 -0.713909,0.679097 -0.340772,0.08491 -0.702213,-0.0149 -0.950245,-0.262935 l -8.249455,-8.249455 c 1.646857,-1.646858 5.922748,-5.922749 10.207831,-10.207832 0.746,-0.746 0.783695,-1.942918 0.08768,-2.735097 -0.696012,-0.79218 -1.888416,-0.906948 -2.723784,-0.263043 z" id="path8" style="stroke-width:1.1094;fill:#000000"/></svg>